<svg width="1024" height="1024" viewBox="0 0 1024 1024" fill="none" xmlns="http://www.w3.org/2000/svg">
  <rect width="1024" height="1024" rx="256" fill="#7631F9"/>
  <path d="M512 256C370.4 256 256 370.4 256 512C256 653.6 370.4 768 512 768C653.6 768 768 653.6 768 512C768 370.4 653.6 256 512 256ZM512 704C406.4 704 320 617.6 320 512C320 406.4 406.4 320 512 320C617.6 320 704 406.4 704 512C704 617.6 617.6 704 512 704Z" fill="white"/>
  <path d="M560 464H464V560H560V464Z" fill="white"/>
  <path d="M512 384C454.4 384 408 430.4 408 488H472C472 464 488 448 512 448C536 448 552 464 552 488C552 512 536 528 512 528V592H576V544C608 528 632 504 632 472C632 424 576 384 512 384Z" fill="white"/>
</svg>